<svg id="visual" viewBox="0 0 900 600" width="900" height="600" xmlns="http://www.w3.org/2000/svg" xmlns:xlink="http://www.w3.org/1999/xlink" version="1.1"><path d="M0 321L18.8 308C37.7 295 75.3 269 112.8 249.5C150.3 230 187.7 217 225.2 211.3C262.7 205.7 300.3 207.3 337.8 220.7C375.3 234 412.7 259 450.2 278.2C487.7 297.3 525.3 310.7 562.8 317.3C600.3 324 637.7 324 675.2 307.7C712.7 291.3 750.3 258.7 787.8 239.5C825.3 220.3 862.7 214.7 881.3 211.8L900 209L900 0L881.3 0C862.7 0 825.3 0 787.8 0C750.3 0 712.7 0 675.2 0C637.7 0 600.3 0 562.8 0C525.3 0 487.7 0 450.2 0C412.7 0 375.3 0 337.8 0C300.3 0 262.7 0 225.2 0C187.7 0 150.3 0 112.8 0C75.3 0 37.7 0 18.8 0L0 0Z" fill="#FFFFFF" stroke-linecap="round" stroke-linejoin="miter"></path></svg>