<svg id="visual" viewBox="0 0 900 600" width="900" height="600" xmlns="http://www.w3.org/2000/svg" xmlns:xlink="http://www.w3.org/1999/xlink" version="1.1"><path d="M0 277L18.8 290C37.7 303 75.3 329 112.8 348.5C150.3 368 187.7 381 225.2 386.7C262.7 392.3 300.3 390.7 337.8 377.3C375.3 364 412.7 339 450.2 319.8C487.7 300.7 525.3 287.3 562.8 280.7C600.3 274 637.7 274 675.2 290.3C712.7 306.7 750.3 339.3 787.8 358.5C825.3 377.7 862.7 383.3 881.3 386.2L900 389L900 601L881.3 601C862.7 601 825.3 601 787.8 601C750.3 601 712.7 601 675.2 601C637.7 601 600.3 601 562.8 601C525.3 601 487.7 601 450.2 601C412.7 601 375.3 601 337.8 601C300.3 601 262.7 601 225.2 601C187.7 601 150.3 601 112.8 601C75.3 601 37.7 601 18.8 601L0 601Z" fill="#FFFFFF" stroke-linecap="round" stroke-linejoin="miter"></path></svg>